<mxfile host="app.diagrams.net" modified="2020-07-19T17:55:54.710Z" agent="5.0 (iPad; CPU OS 13_5 like Mac OS X) AppleWebKit/605.1.15 (KHTML, like Gecko) CriOS/83.0.4103.88 Mobile/15E148 Safari/604.1" etag="2wnTjuUdHyvPEEh3H14c" version="13.4.8" type="github" pages="2">
  <diagram id="5k38Uwf0u3PKWiMoSwMX" name="General">
    <mxGraphModel dx="789" dy="664" grid="1" gridSize="10" guides="1" tooltips="1" connect="1" arrows="1" fold="1" page="0" pageScale="1" pageWidth="827" pageHeight="1169" math="0" shadow="0">
      <root>
        <mxCell id="0" />
        <mxCell id="1" parent="0" />
        <mxCell id="wevQk2u4vDGBZzKrU8n_-20" style="edgeStyle=orthogonalEdgeStyle;rounded=0;orthogonalLoop=1;jettySize=auto;html=1;entryX=1;entryY=0.5;entryDx=0;entryDy=0;exitX=0.25;exitY=1;exitDx=0;exitDy=0;" parent="1" source="jz85_HqYoIJbby1c3wik-4" target="DMtepD6-C1SyubJshnfG-14" edge="1">
          <mxGeometry relative="1" as="geometry">
            <Array as="points">
              <mxPoint x="620" y="530" />
            </Array>
            <mxPoint x="430" y="552" as="targetPoint" />
          </mxGeometry>
        </mxCell>
        <mxCell id="DMtepD6-C1SyubJshnfG-2" style="edgeStyle=orthogonalEdgeStyle;rounded=0;orthogonalLoop=1;jettySize=auto;html=1;entryX=1;entryY=0.5;entryDx=0;entryDy=0;exitX=0.5;exitY=0;exitDx=0;exitDy=0;" parent="1" source="jz85_HqYoIJbby1c3wik-4" target="jz85_HqYoIJbby1c3wik-6" edge="1">
          <mxGeometry relative="1" as="geometry">
            <Array as="points">
              <mxPoint x="650" y="370" />
            </Array>
          </mxGeometry>
        </mxCell>
        <mxCell id="wevQk2u4vDGBZzKrU8n_-18" style="edgeStyle=orthogonalEdgeStyle;rounded=0;orthogonalLoop=1;jettySize=auto;html=1;entryX=0.75;entryY=0;entryDx=0;entryDy=0;exitX=0;exitY=0.5;exitDx=0;exitDy=0;" parent="1" source="jz85_HqYoIJbby1c3wik-6" target="jz85_HqYoIJbby1c3wik-1" edge="1">
          <mxGeometry relative="1" as="geometry" />
        </mxCell>
        <mxCell id="wevQk2u4vDGBZzKrU8n_-19" style="edgeStyle=orthogonalEdgeStyle;rounded=0;orthogonalLoop=1;jettySize=auto;html=1;entryX=0.75;entryY=1;entryDx=0;entryDy=0;exitX=0;exitY=0.5;exitDx=0;exitDy=0;" parent="1" source="jz85_HqYoIJbby1c3wik-13" target="jz85_HqYoIJbby1c3wik-1" edge="1">
          <mxGeometry relative="1" as="geometry">
            <Array as="points">
              <mxPoint x="300" y="623" />
            </Array>
          </mxGeometry>
        </mxCell>
        <mxCell id="DMtepD6-C1SyubJshnfG-3" style="edgeStyle=orthogonalEdgeStyle;rounded=0;orthogonalLoop=1;jettySize=auto;html=1;entryX=0.25;entryY=0;entryDx=0;entryDy=0;dashed=1;" parent="1" source="jz85_HqYoIJbby1c3wik-17" target="jz85_HqYoIJbby1c3wik-5" edge="1">
          <mxGeometry relative="1" as="geometry" />
        </mxCell>
        <mxCell id="jz85_HqYoIJbby1c3wik-17" value="redis&amp;nbsp;" style="aspect=fixed;html=1;points=[];align=center;image;fontSize=12;image=img/lib/mscae/Cache_Redis_Product.svg;" parent="1" vertex="1">
          <mxGeometry x="215" y="586" width="50" height="42" as="geometry" />
        </mxCell>
        <mxCell id="wevQk2u4vDGBZzKrU8n_-8" style="edgeStyle=orthogonalEdgeStyle;rounded=0;orthogonalLoop=1;jettySize=auto;html=1;entryX=0.5;entryY=0;entryDx=0;entryDy=0;startArrow=classic;startFill=1;endArrow=none;endFill=0;" parent="1" source="wevQk2u4vDGBZzKrU8n_-2" target="jz85_HqYoIJbby1c3wik-1" edge="1">
          <mxGeometry relative="1" as="geometry">
            <Array as="points">
              <mxPoint x="270" y="390" />
            </Array>
          </mxGeometry>
        </mxCell>
        <mxCell id="wevQk2u4vDGBZzKrU8n_-9" style="edgeStyle=orthogonalEdgeStyle;rounded=0;orthogonalLoop=1;jettySize=auto;html=1;entryX=0.5;entryY=1;entryDx=0;entryDy=0;startArrow=classic;startFill=1;endArrow=none;endFill=0;" parent="1" source="wevQk2u4vDGBZzKrU8n_-2" target="wevQk2u4vDGBZzKrU8n_-4" edge="1">
          <mxGeometry relative="1" as="geometry">
            <Array as="points">
              <mxPoint x="270" y="370" />
            </Array>
          </mxGeometry>
        </mxCell>
        <mxCell id="wevQk2u4vDGBZzKrU8n_-2" value="PostreSQL" style="aspect=fixed;html=1;points=[];align=center;image;fontSize=12;image=img/lib/mscae/Azure_Database_for_PostgreSQL_servers.svg;" parent="1" vertex="1">
          <mxGeometry x="135.99999999999997" y="356.99999999999994" width="38" height="50" as="geometry" />
        </mxCell>
        <mxCell id="wevQk2u4vDGBZzKrU8n_-13" style="edgeStyle=orthogonalEdgeStyle;rounded=0;orthogonalLoop=1;jettySize=auto;html=1;startArrow=classic;startFill=1;endArrow=none;endFill=0;" parent="1" source="wevQk2u4vDGBZzKrU8n_-3" target="jz85_HqYoIJbby1c3wik-7" edge="1">
          <mxGeometry relative="1" as="geometry" />
        </mxCell>
        <mxCell id="wevQk2u4vDGBZzKrU8n_-3" value="MongoDB" style="dashed=0;outlineConnect=0;html=1;align=center;labelPosition=center;verticalLabelPosition=bottom;verticalAlign=top;shape=mxgraph.webicons.mongodb;gradientColor=#DFDEDE" parent="1" vertex="1">
          <mxGeometry x="350" y="685" width="50" height="50" as="geometry" />
        </mxCell>
        <mxCell id="wevQk2u4vDGBZzKrU8n_-7" style="edgeStyle=orthogonalEdgeStyle;rounded=0;orthogonalLoop=1;jettySize=auto;html=1;entryX=0;entryY=0.25;entryDx=0;entryDy=0;startArrow=classic;startFill=1;endArrow=none;endFill=0;" parent="1" source="wevQk2u4vDGBZzKrU8n_-6" target="wevQk2u4vDGBZzKrU8n_-4" edge="1">
          <mxGeometry relative="1" as="geometry" />
        </mxCell>
        <mxCell id="wevQk2u4vDGBZzKrU8n_-6" value="PostreSQL" style="aspect=fixed;html=1;points=[];align=center;image;fontSize=12;image=img/lib/mscae/Azure_Database_for_PostgreSQL_servers.svg;" parent="1" vertex="1">
          <mxGeometry x="135.99999999999997" y="260" width="38" height="50" as="geometry" />
        </mxCell>
        <mxCell id="wevQk2u4vDGBZzKrU8n_-12" style="edgeStyle=orthogonalEdgeStyle;rounded=0;orthogonalLoop=1;jettySize=auto;html=1;entryX=0;entryY=0.5;entryDx=0;entryDy=0;startArrow=classic;startFill=1;endArrow=none;endFill=0;" parent="1" source="wevQk2u4vDGBZzKrU8n_-10" target="DMtepD6-C1SyubJshnfG-14" edge="1">
          <mxGeometry relative="1" as="geometry">
            <mxPoint x="370" y="548" as="targetPoint" />
          </mxGeometry>
        </mxCell>
        <mxCell id="wevQk2u4vDGBZzKrU8n_-10" value="MongoDB" style="dashed=0;outlineConnect=0;html=1;align=center;labelPosition=center;verticalLabelPosition=bottom;verticalAlign=top;shape=mxgraph.webicons.mongodb;gradientColor=#DFDEDE" parent="1" vertex="1">
          <mxGeometry x="350" y="500" width="50" height="50" as="geometry" />
        </mxCell>
        <mxCell id="wevQk2u4vDGBZzKrU8n_-16" value="" style="group" parent="1" vertex="1" connectable="0">
          <mxGeometry x="200" y="676" width="130" height="68" as="geometry" />
        </mxCell>
        <mxCell id="jz85_HqYoIJbby1c3wik-5" value="Notify" style="rounded=1;whiteSpace=wrap;html=1;" parent="wevQk2u4vDGBZzKrU8n_-16" vertex="1">
          <mxGeometry x="10" width="120" height="60" as="geometry" />
        </mxCell>
        <mxCell id="jz85_HqYoIJbby1c3wik-24" value="Kotlin" style="shape=image;html=1;verticalAlign=top;verticalLabelPosition=bottom;labelBackgroundColor=#ffffff;imageAspect=0;aspect=fixed;image=https://cdn4.iconfinder.com/data/icons/logos-brands-5/24/kotlin-128.png;imageBackground=#ffffff;" parent="wevQk2u4vDGBZzKrU8n_-16" vertex="1">
          <mxGeometry y="40" width="28" height="28" as="geometry" />
        </mxCell>
        <mxCell id="wevQk2u4vDGBZzKrU8n_-17" style="edgeStyle=orthogonalEdgeStyle;rounded=0;orthogonalLoop=1;jettySize=auto;html=1;entryX=0.5;entryY=1;entryDx=0;entryDy=0;" parent="1" source="jz85_HqYoIJbby1c3wik-5" target="jz85_HqYoIJbby1c3wik-1" edge="1">
          <mxGeometry relative="1" as="geometry" />
        </mxCell>
        <mxCell id="wevQk2u4vDGBZzKrU8n_-25" value="" style="group" parent="1" vertex="1" connectable="0">
          <mxGeometry x="410" y="340" width="130" height="68" as="geometry" />
        </mxCell>
        <mxCell id="jz85_HqYoIJbby1c3wik-6" value="DocsGen" style="rounded=1;whiteSpace=wrap;html=1;" parent="wevQk2u4vDGBZzKrU8n_-25" vertex="1">
          <mxGeometry x="10" width="120" height="60" as="geometry" />
        </mxCell>
        <mxCell id="jz85_HqYoIJbby1c3wik-25" value="Java" style="shape=image;html=1;verticalAlign=top;verticalLabelPosition=bottom;labelBackgroundColor=#ffffff;imageAspect=0;aspect=fixed;image=https://cdn1.iconfinder.com/data/icons/system-black-circles/512/java-128.png;imageBackground=#ffffff;" parent="wevQk2u4vDGBZzKrU8n_-25" vertex="1">
          <mxGeometry y="40" width="28" height="28" as="geometry" />
        </mxCell>
        <mxCell id="DMtepD6-C1SyubJshnfG-1" value="" style="group" parent="1" vertex="1" connectable="0">
          <mxGeometry x="200" y="420" width="130" height="68" as="geometry" />
        </mxCell>
        <mxCell id="jz85_HqYoIJbby1c3wik-1" value="Backend&amp;nbsp;" style="rounded=1;whiteSpace=wrap;html=1;" parent="DMtepD6-C1SyubJshnfG-1" vertex="1">
          <mxGeometry x="10" width="120" height="60" as="geometry" />
        </mxCell>
        <mxCell id="jz85_HqYoIJbby1c3wik-22" value="C#" style="shape=image;html=1;verticalAlign=top;verticalLabelPosition=bottom;labelBackgroundColor=#ffffff;imageAspect=0;aspect=fixed;image=https://cdn0.iconfinder.com/data/icons/e-learning-coding-tutorial-badge-icons/96/Coding_Icons_-_SOLID-14-128.png;imageBackground=#ffffff;" parent="DMtepD6-C1SyubJshnfG-1" vertex="1">
          <mxGeometry y="40" width="28" height="28" as="geometry" />
        </mxCell>
        <mxCell id="DMtepD6-C1SyubJshnfG-4" value="" style="group" parent="1" vertex="1" connectable="0">
          <mxGeometry x="580" y="422" width="130" height="72" as="geometry" />
        </mxCell>
        <mxCell id="jz85_HqYoIJbby1c3wik-4" value="Front end" style="rounded=1;whiteSpace=wrap;html=1;" parent="DMtepD6-C1SyubJshnfG-4" vertex="1">
          <mxGeometry x="10" width="120" height="60" as="geometry" />
        </mxCell>
        <mxCell id="jz85_HqYoIJbby1c3wik-28" value="Vue.JS" style="shape=image;html=1;verticalAlign=top;verticalLabelPosition=bottom;labelBackgroundColor=#ffffff;imageAspect=0;aspect=fixed;image=https://cdn4.iconfinder.com/data/icons/logos-brands-5/24/vue-dot-js-128.png;imageBackground=#ffffff;" parent="DMtepD6-C1SyubJshnfG-4" vertex="1">
          <mxGeometry y="40" width="32" height="32" as="geometry" />
        </mxCell>
        <mxCell id="DMtepD6-C1SyubJshnfG-6" style="edgeStyle=orthogonalEdgeStyle;rounded=0;orthogonalLoop=1;jettySize=auto;html=1;" parent="1" source="DMtepD6-C1SyubJshnfG-5" edge="1">
          <mxGeometry relative="1" as="geometry">
            <mxPoint x="240" y="736" as="targetPoint" />
            <Array as="points">
              <mxPoint x="240" y="810" />
            </Array>
          </mxGeometry>
        </mxCell>
        <mxCell id="DMtepD6-C1SyubJshnfG-5" value="vkontakte" style="dashed=0;outlineConnect=0;html=1;align=center;labelPosition=center;verticalLabelPosition=bottom;verticalAlign=top;shape=mxgraph.webicons.vkontakte;fillColor=#5F94CC;gradientColor=#39587A" parent="1" vertex="1">
          <mxGeometry x="134.99999999999986" y="780" width="50" height="50" as="geometry" />
        </mxCell>
        <mxCell id="jz85_HqYoIJbby1c3wik-10" style="edgeStyle=orthogonalEdgeStyle;rounded=0;orthogonalLoop=1;jettySize=auto;html=1;entryX=1;entryY=0.25;entryDx=0;entryDy=0;exitX=0;exitY=0.25;exitDx=0;exitDy=0;" parent="1" source="jz85_HqYoIJbby1c3wik-4" target="jz85_HqYoIJbby1c3wik-1" edge="1">
          <mxGeometry relative="1" as="geometry">
            <Array as="points">
              <mxPoint x="450" y="435" />
              <mxPoint x="450" y="435" />
            </Array>
          </mxGeometry>
        </mxCell>
        <mxCell id="DMtepD6-C1SyubJshnfG-10" style="edgeStyle=orthogonalEdgeStyle;rounded=0;orthogonalLoop=1;jettySize=auto;html=1;entryX=1;entryY=0.5;entryDx=0;entryDy=0;exitX=0.5;exitY=1;exitDx=0;exitDy=0;" parent="1" source="jz85_HqYoIJbby1c3wik-4" target="jz85_HqYoIJbby1c3wik-13" edge="1">
          <mxGeometry relative="1" as="geometry" />
        </mxCell>
        <mxCell id="DMtepD6-C1SyubJshnfG-11" value="" style="group" parent="1" vertex="1" connectable="0">
          <mxGeometry x="410" y="680" width="130" height="68" as="geometry" />
        </mxCell>
        <mxCell id="jz85_HqYoIJbby1c3wik-7" value="Reports" style="rounded=1;whiteSpace=wrap;html=1;" parent="DMtepD6-C1SyubJshnfG-11" vertex="1">
          <mxGeometry x="10" width="120" height="60" as="geometry" />
        </mxCell>
        <mxCell id="jz85_HqYoIJbby1c3wik-26" value="Go" style="shape=image;html=1;verticalAlign=top;verticalLabelPosition=bottom;labelBackgroundColor=#ffffff;imageAspect=0;aspect=fixed;image=https://cdn4.iconfinder.com/data/icons/logos-brands-5/24/go-128.png;imageBackground=#ffffff;" parent="DMtepD6-C1SyubJshnfG-11" vertex="1">
          <mxGeometry y="40" width="28" height="28" as="geometry" />
        </mxCell>
        <mxCell id="DMtepD6-C1SyubJshnfG-13" value="" style="group" parent="1" vertex="1" connectable="0">
          <mxGeometry x="410" y="500" width="130" height="68" as="geometry" />
        </mxCell>
        <mxCell id="DMtepD6-C1SyubJshnfG-14" value="Salary" style="rounded=1;whiteSpace=wrap;html=1;" parent="DMtepD6-C1SyubJshnfG-13" vertex="1">
          <mxGeometry x="10" width="120" height="60" as="geometry" />
        </mxCell>
        <mxCell id="DMtepD6-C1SyubJshnfG-15" value="C#" style="shape=image;html=1;verticalAlign=top;verticalLabelPosition=bottom;labelBackgroundColor=#ffffff;imageAspect=0;aspect=fixed;image=https://cdn0.iconfinder.com/data/icons/e-learning-coding-tutorial-badge-icons/96/Coding_Icons_-_SOLID-14-128.png;imageBackground=#ffffff;" parent="DMtepD6-C1SyubJshnfG-13" vertex="1">
          <mxGeometry y="40" width="28" height="28" as="geometry" />
        </mxCell>
        <mxCell id="DMtepD6-C1SyubJshnfG-16" style="edgeStyle=orthogonalEdgeStyle;rounded=0;orthogonalLoop=1;jettySize=auto;html=1;exitX=0.75;exitY=1;exitDx=0;exitDy=0;" parent="1" source="jz85_HqYoIJbby1c3wik-4" edge="1">
          <mxGeometry relative="1" as="geometry">
            <Array as="points">
              <mxPoint x="680" y="810" />
              <mxPoint x="300" y="810" />
            </Array>
            <mxPoint x="300" y="736" as="targetPoint" />
          </mxGeometry>
        </mxCell>
        <mxCell id="DMtepD6-C1SyubJshnfG-18" value="" style="group" parent="1" vertex="1" connectable="0">
          <mxGeometry x="200" y="270" width="130" height="68" as="geometry" />
        </mxCell>
        <mxCell id="wevQk2u4vDGBZzKrU8n_-4" value="Identity" style="rounded=1;whiteSpace=wrap;html=1;" parent="DMtepD6-C1SyubJshnfG-18" vertex="1">
          <mxGeometry x="10" width="120" height="60" as="geometry" />
        </mxCell>
        <mxCell id="wevQk2u4vDGBZzKrU8n_-5" value="C#" style="shape=image;html=1;verticalAlign=top;verticalLabelPosition=bottom;labelBackgroundColor=#ffffff;imageAspect=0;aspect=fixed;image=https://cdn0.iconfinder.com/data/icons/e-learning-coding-tutorial-badge-icons/96/Coding_Icons_-_SOLID-14-128.png;imageBackground=#ffffff;" parent="DMtepD6-C1SyubJshnfG-18" vertex="1">
          <mxGeometry y="40" width="28" height="28" as="geometry" />
        </mxCell>
        <mxCell id="DMtepD6-C1SyubJshnfG-19" style="edgeStyle=orthogonalEdgeStyle;rounded=0;orthogonalLoop=1;jettySize=auto;html=1;exitX=0.75;exitY=0;exitDx=0;exitDy=0;entryX=1;entryY=0.5;entryDx=0;entryDy=0;startArrow=none;startFill=0;endArrow=classic;endFill=1;" parent="1" source="jz85_HqYoIJbby1c3wik-4" target="wevQk2u4vDGBZzKrU8n_-4" edge="1">
          <mxGeometry relative="1" as="geometry" />
        </mxCell>
        <mxCell id="DMtepD6-C1SyubJshnfG-25" value="" style="group" parent="1" vertex="1" connectable="0">
          <mxGeometry x="471" y="586" width="130" height="69" as="geometry" />
        </mxCell>
        <mxCell id="jz85_HqYoIJbby1c3wik-13" value="Reports front" style="rounded=1;whiteSpace=wrap;html=1;fontStyle=0" parent="DMtepD6-C1SyubJshnfG-25" vertex="1">
          <mxGeometry x="10" width="120" height="60" as="geometry" />
        </mxCell>
        <mxCell id="DMtepD6-C1SyubJshnfG-24" value="Blazor" style="shape=image;imageAspect=0;aspect=fixed;verticalLabelPosition=bottom;verticalAlign=top;image=data:image/png,iVBORw0KGgoAAAANSUhEUgAAAJYAAACWCAMAAAAL34HQAAAAAXNSR0IB2cksfwAAAAlwSFlzAAAOxAAADsQBlSsOGwAAAmpQTFRFAAAAAAAAAAAAAAAAAAAAAAAAAAAAAAAAAAAAAAAAAAAAAAAAAAAAAAAAAAAAAAAAAAAAAAAAAAAAAAAAAAAAAAAAAAAAAAAAAAAAAAAAAAAAAAAAAAAAAAAAAAAAAAAAAAAAAAAAAAAAAAAAAAAAAAAAAAAAAAAAAAAAAAAAAAAAAAAAAAAAAAAAAAAAAAAAAAAAAAAAAAAAAAAAAAAAAAAAAAAAAAAAAAAAAAAAAAAAAAAAAAAAAAAAAAAAAAAAAAAAAAAAAAAAAAAAAAAAAAAAAAAAAAAAAAAAAAAAAAAAAAAAAAAAAAAAAAAAAAAAAAAAAAAAAAAAAAAAAAAAAAAAAAAAAAAAAAAAAAAAAAAAAAAAAAAAAAAAAAAAAAAAAAAAAAAAAAAAAAAAAAAAAAAAAAAAAAAAAAAAAAAAAAAAAAAAAAAAAAAAAAAAAAAAAAAAAAAAAAAAAAAAAAAAAAAAAAAAAAAAAAAAAAAAAAAAAAAAAAAAAAAAAAAAAAAAAAAAAAAAAAAAAAAAAAAAAAAAAAAAAAAAAAAAAAAAAAAAAAAAAAAAAAAAAAAAAAAAAAAAAAAAAAAAAAAAAAAAAAAAAAAAAAAAAAAAAAAAAAAAAAAAAAAAAAAAAAAAAAAAAAAAAAAAAAAAAAAAAAAAAAAAAAAAAAAAAAAAAAAAAAAAAAAAAAAAAAAAAAAAAAAAAAAAAAAAAAAAAAAAAAAAAAAAAAAAAAAAAAAAAAAAAAAAAAAAAAAAAAAAAAAAAAAAAAAAAAAAAAAAAAAAAAAAAAAAAAAAAAAAAAAAAAAAAAAAAAAAAAAAAAAAQJk2OgAAAM50Uk5TABgMHMePCHj/51BM788Qqfs0YO2IQA4acIZ+sDzfBK/jvfUbgPnQkPS3jLQg89P9KstEtWgSmXpY1eF88S6jxTgKZJ4CS4T3JKQwKLk2zaYUSXQ612wmQdy/6/4GSMy7nF6aoLzAigGo7m7B4FzbLLOsrZZv5fzZYpTRkkLEMskipVTDJ5PITrE+CZe4mEZf8Ktq6d2ndvohZikWStbijtSicg/yWlbmB519P7od7M4ePYLoE2VTMzkF5J9SoV0Z0qra9i2BI03eC/hVL8JC6W39AAANZklEQVR4nO1c+WMSVx4nEGE4CxgSbALFlEhFkIC4JaIrQRoINJpFkm0iGpREY43BbDdqUqM26WoPddda69q73bXbbo917+22e9/X/7QJYd417zEzhMT+kM+P7/zMO77ve7w3CsU61rGOdeBoUD5oBjSoGjd8BXmpNZxW96BJCKE3cJzxQZMQwPQQx3Fmy4OmQcK6cZEW16R+0DxwmLRLrDiDbe27bm5hZqnt3DI2rSGfZSgfbmXmtTkqtBob1pDREpyPmF2sPNXmCiuu3b6GlBbxqLuD28LK9DzG0+K2riUphdJr5rhtjEyfH7Di/M41ZKXaHljs0kvP7AxyCEJrRsoZ2lEeiDA1d+fXAiitx9dsuCJd5Q530QciuhtlxbWu0V7c8/VKh3tpCoJTZ8ZYcYbYWpDqjjfy/e6jZCee6OIIWNeAla8nCfqjLa2YkWTF2hj1QyLVi6wbR1pYIqMVsOKeXN017+xz70f32IF+Ae1vNApZcUbfarLqzLqwjc/FBUVCwhlcGtVV0yLUB6M5YoNxSRNRSBkniyyjfWBVKA1+M7v1qQ5Bb0NEuZR3mMqKO9RTb0p51eGw58huWmd+QjVQjQiZV1CQ2as6c/hotudYkYrRsS1a+qyUsRWbQ9VxA7voqGRCJ5rT+uz40HbXSeY3Vof5aaS15tCpx6qUPSKVVTpccFQZCQkwZmBrKS9FWiGYkEJJffrY5IoYlXEYNBcqin3gsCinROnpMxsDIs1IQFfF0GoITU2INhcQY6UaEIifmuDPlptTxr9VZaVDVOXkTLf6xZuQhGecinwmOpIULylKq+TeXidSHPftPs3Udul7mE0q32asy/QtY5oh0OXSsj1ZP07ywSBlijjO0oofaj93ZKTodWfPW60a98yBkdmJ9rWjZeqh7pfk6LMDFtyNkLowUAxKXcgro5UoOYQF2+fsF1k+HnVo09yq08rrLpGlOia9T1xOMEiViV22PleHk4CHmdLFvGCsJr2xKpR4ZrGpjfWipRW0rhwgxcKCVarG32911YeW4KhWZnEBE3Bln682ezgSB79TF2JXyIYHCLE3cpjWPRtqPWW7yAahBubn8Rl02PLyWCmWVsHKB6yIz8FVbDclX6AaRvmWVNryos0WSw+qaD6Fly7kqKJYBnCzuoRLhpdVlLGwhb3brkws6eyGiSPXrttvUArFTq2MVUcWbc2ELQuXwGFgChVmKad3rjcuMAAF21kWsBCLqQfNcnwXl+n5VHbrLnorh3YPudvwRdjtPbkCWufQUEYEPQf9eryfBjvNWYB8YDSDlS97SmtFIzL6enQDTeJuu1SP+GncfiaDCjhyU8tBL2xGfQpR/B1H0bFSxxck6QjGp1HvYt77vVppPQxbCaHpVpTVzqxUxaX9JuopUu6rldY8aKMPkVjtmNiYF/gQq8D1CrJRTN7aWE3uAfO0AU5h4DlE0+vWTR+S0+St44iEbXm1JlrQ02xDRFYuhozV6epWuRBmO8IrXJOq4wYaC7L7zYiD03m7Bn24F1n4r9WyHdv42hZY+85tuM27j9binWnvheP1/Rfk10828yurCSZ2IRI2IncGKwjDdR+TXxt4kUJQvidPQ1ZxmsmZnJ2K3rUS6NmBOQXMcHUoinLdKmZ3pWZiA0y8CXchZR/tbvSEXn9DIYDz0TdHUGIT8ONib8mk9faNSk0f4oWGGlZzE1khMBmmaDEVNLyD8pqEy8sjk9ZmvmoPXPCIM1iwibbeqGpqJEJohRlw2maornc2gD4FY4y7oUO87V289Mn3VCKmRv72HVjcEAHJ78ti5eC3XD/8SiSq3osvVcPj4pdyLOeQCk+C49EnS3Zd58VDHKZBhTSNF9ZmSA40RJEaZg9I3iaHFj9YPyiApMmLfEvN+ELNnSYZUHEDPRNcYHgHfiidlYPXXUo5kFbgB1DRhglS/11JrBSd2HoECnlqVjKrwAxfKQITgUrqfA8rrMPUzpJ9Bo9eNPFxNt8YWqsxxVeRLiO2g8UCxROMYF1EZWDgFKJDKe8d6CKP7+EIlVbyA76SdP35HSCDzoA0GNLQoD1PI+bRIM1yMFiptGBAKS3VAaAFykMJKJ+BJtA7JgHdIFkRpZ7dLFqTsUp6c4FWjQI7GKyrP+LTTh7l0/pRfSYHVIoPP6AG5Ji0HuMjdQk7tZ4Afni22cF85YD+Z0PLwutnFxj+PhYtbpyvGaJXJIFco7oOEjfzI+h0o2VBODvNCh4waQGnnlISq9kSpNUKUoH3pn8cKfsqEA4f3RE0JEIrAM4yKfqk+ceIHLoCkkGAOLMFKQwmQsmMITFpcTFhL2wEByErxQRIBldI2hDxAIPscUpLYrTADYNeCbRiCgRwDPR80jxSFuiKzcdqoBU9UckRN2QDmzFtDmYAxTSMlO7il+HgkRpozXRXcjSict6lV1BpaYF8QjfiJV5t6mOHuNi0endWcqxiwc0kcaMEZEwAsYXSGuN3x8dsC4ZN65NPKzn3PhOhtY+4SkahhR74QLm3CZsSpzXGC70Qw5HIw0+qmRRa6AkGHHNVJtHF++7ZtGzVD+uNAj8thdYmpMIsrzQ9/xNmo2/xjh8BrWv8IVedVuDlZgUBkAdv5KFrC2gBmOjHcYpXj++PEjlFfqz109VoNQotBbhzgYAYQGrAK5mnma1G+SKmIpnDb5g4XfdYhpZiFMPPAK5BRI3mAsCAaWH5lKZ/yhdx/ozIAgqku0pc4+fo5RseT4FsMC7o4cPNgZJDjGZn4MKIEFlgGMhhRGBuohnrcJUCjyl2VMOmS3QDZhhx4xLH+TWQkaNWLSNLtYvHQf5DfNIvDqDVrPz6SPySJiM+06CtYcqPFliXJqb7rmNEsAnLgLITiKiEBq0IHaxKiu5r9mIfm0bvTF8Hei1bO6VswjLCwP8DLxzjlj5yd26A3Of+eSLg2HkT5GmAfSfYoQA3WVc54bEAr/XnsSWyF5ihiu5fjaCqQHLhPBkGPdHiMS65lw2XonAYP2ZIrbNG3wkFHYglDmOemDMjiUYPGjzQztC6U8L2FnfMafdMkxXNYlnVxjZa/WVAZd4F0uZvobXNIdTYd6bCxxctfI91j9SAf+SWgFD1GVwCFIEBsPx2XsPqL/war5I3mUx4tPFEhv1qqDtIjYN0XGLOYPlbYEmoihF7blzsYr3vjJ7lK8wzTq2REqPCMjqh+Td6n09saMXbyFXn1WaEShcBZ5Z+YU5DBpIJILaDH+jTiauEMtr6G7bn9HOL8eySa45Wwpn9LY3ULa+ozxOxtIDTS+Ekj4tLemYDV5c9KVqbcA+o56ljNfy++AM2xKWLPOEQKm7FPlrtRGmBP1nMZ8gXIDrqzYNAUNJ9eOg2Mn8BEvNu8hwzz7oHSenptLiRA/zsrqbQfTCVDR/3TNPsEkOhUworBeJKM8CF6BsRthiMYgLQeVHjIDo2jGq+tPj6TSlbuJUursx2kcXOI4O4Ytxw0huo/gztJ56wzmaz6Qa812q4lGq+TXmPQYcTOpM4x4sw/e7b9Kb9WofDoW2XFSxexiHta5+yeZDQIeroMbidnNE6XjwtIzhfhYUAyhlYsx1xla7kioUQgcnDMt+12pCFO43E9fMruiqDw7GBKmCqwYl6RXsQAaxsqtNda3PQVsMT4Hlk16EhXUUiVmO8GkPSU9tzaeXvkEYmjqJZ+qGVLjDtQ/O1PsW/gVo1Dkxf6Kxi5ElAckhX+/8BnFa0qeBFLFNf86W6jiAlvH2QfeoL0DyLiMfADkwWJ16PUk83Edxx9P5+kNR2TuyMTl2VTkthRacxsEAMvP4R2dda5jbRLmJeLGilxUx5vI8t7YUYkd3QIz1E35Hzfkm7m5AojSSlxZch/oBdAwvMvUnkqzuttAdrJLR/3KF5okQVUulFLUhifBmBD/cxuCwCLVh9MDpW7VFFcsufvLpBhqGm1OUCXE7WqbgM2zm8k2doE+FU6eze8dErEwB/nhubKrrtEQv7/wWKhM/jWpwCYy1vk51WXKT/ZbPlQ2rBfP/9VBrgr5d9b1RX7ZyxvwUXV27HIzUKe9Inkztfj59ZpDXLn/tFzW9a7eTScdR8cFSwJ1t57uVawdNR8hr/4s76SK6aBJH/u7733cqLm6GrKxl4im/N4Jasf+Ok0j17eSFsblzpo+SIMCRtzg3IFILKF7OjiJfMGFnxC+78Pyi3qv3GwuHnu8UrL+LDlti9plP/RA4rw5nS5ytlpViy0GgHc3L/jE50JnZa4se3EVE6R1aiZSgGpZ31nsIwWtDMt6WIftSqUuie3TN1hBI2dLjr98Ocf10I/ptBjDPfenW2cWhrsVhwu93efcXizaGF/V27PqOpGIc2PttW19/4ZAp1MC7MmyU/XZIMVW+1+JEEODw+6S+XpKP/P1O1j5h/uya2Wv/4UtuD4gRoMF+zyxR08pBIeeVc4y9juHCPfW22Xuj+b1yKUrqMwPBs4W5fczXPdv2wqJTOSVn+2rGmCDWwsXrIZ8Kebaz/Kgxv2eZ9Rd+/GvtOHC+1WG7E3dfHh/6331jG3qGh8X1ezXl9X6ZF/tO8uiOv8pXxFfzJ3zrWsY464v9TDgzwxPckAwAAAABJRU5ErkJggg==;imageBackground=#ffffff;fontStyle=0" parent="DMtepD6-C1SyubJshnfG-25" vertex="1">
          <mxGeometry x="3" y="39" width="30" height="30" as="geometry" />
        </mxCell>
        <mxCell id="DMtepD6-C1SyubJshnfG-27" style="edgeStyle=orthogonalEdgeStyle;rounded=0;orthogonalLoop=1;jettySize=auto;html=1;exitX=0.25;exitY=1;exitDx=0;exitDy=0;startArrow=none;startFill=0;endArrow=classic;endFill=1;dashed=1;" parent="1" source="jz85_HqYoIJbby1c3wik-1" target="jz85_HqYoIJbby1c3wik-17" edge="1">
          <mxGeometry relative="1" as="geometry" />
        </mxCell>
        <mxCell id="DMtepD6-C1SyubJshnfG-28" style="edgeStyle=orthogonalEdgeStyle;rounded=0;orthogonalLoop=1;jettySize=auto;html=1;exitX=0.25;exitY=0;exitDx=0;exitDy=0;entryX=0.75;entryY=1;entryDx=0;entryDy=0;startArrow=none;startFill=0;endArrow=classic;endFill=1;" parent="1" source="jz85_HqYoIJbby1c3wik-13" target="DMtepD6-C1SyubJshnfG-14" edge="1">
          <mxGeometry relative="1" as="geometry" />
        </mxCell>
        <mxCell id="DMtepD6-C1SyubJshnfG-29" style="edgeStyle=orthogonalEdgeStyle;rounded=0;orthogonalLoop=1;jettySize=auto;html=1;exitX=0.25;exitY=1;exitDx=0;exitDy=0;entryX=0.75;entryY=0;entryDx=0;entryDy=0;startArrow=none;startFill=0;endArrow=classic;endFill=1;" parent="1" source="jz85_HqYoIJbby1c3wik-13" target="jz85_HqYoIJbby1c3wik-7" edge="1">
          <mxGeometry relative="1" as="geometry" />
        </mxCell>
        <mxCell id="MmjIP-W2wRoIS9yRjj9R-2" style="edgeStyle=orthogonalEdgeStyle;rounded=0;orthogonalLoop=1;jettySize=auto;html=1;entryX=0;entryY=0.5;entryDx=0;entryDy=0;startArrow=classic;startFill=1;endArrow=none;endFill=0;" edge="1" parent="1" source="MmjIP-W2wRoIS9yRjj9R-1" target="jz85_HqYoIJbby1c3wik-5">
          <mxGeometry relative="1" as="geometry">
            <mxPoint x="200" y="680" as="targetPoint" />
          </mxGeometry>
        </mxCell>
        <mxCell id="MmjIP-W2wRoIS9yRjj9R-1" value="PostreSQL" style="aspect=fixed;html=1;points=[];align=center;image;fontSize=12;image=img/lib/mscae/Azure_Database_for_PostgreSQL_servers.svg;" vertex="1" parent="1">
          <mxGeometry x="140.99999999999997" y="681" width="38" height="50" as="geometry" />
        </mxCell>
      </root>
    </mxGraphModel>
  </diagram>
  <diagram id="Xh6qWWhFFupqEXcdmdRI" name="Trash">
    <mxGraphModel dx="622" dy="22" grid="1" gridSize="10" guides="1" tooltips="1" connect="1" arrows="1" fold="1" page="0" pageScale="1" pageWidth="850" pageHeight="1100" math="0" shadow="0">
      <root>
        <mxCell id="ezNUpzqv9ex8p5q5_Ao5-0" />
        <mxCell id="ezNUpzqv9ex8p5q5_Ao5-1" parent="ezNUpzqv9ex8p5q5_Ao5-0" />
        <mxCell id="Z1aSbTaXqpjSIRkdbFAJ-0" style="edgeStyle=orthogonalEdgeStyle;rounded=0;orthogonalLoop=1;jettySize=auto;html=1;" edge="1" parent="ezNUpzqv9ex8p5q5_Ao5-1" source="Z1aSbTaXqpjSIRkdbFAJ-1" target="Z1aSbTaXqpjSIRkdbFAJ-2">
          <mxGeometry relative="1" as="geometry" />
        </mxCell>
        <mxCell id="Z1aSbTaXqpjSIRkdbFAJ-1" value="Projects" style="rounded=1;whiteSpace=wrap;html=1;" vertex="1" parent="ezNUpzqv9ex8p5q5_Ao5-1">
          <mxGeometry x="1262" y="1100" width="120" height="60" as="geometry" />
        </mxCell>
        <mxCell id="Z1aSbTaXqpjSIRkdbFAJ-2" value="Projects front" style="rounded=1;whiteSpace=wrap;html=1;" vertex="1" parent="ezNUpzqv9ex8p5q5_Ao5-1">
          <mxGeometry x="1452" y="1100" width="120" height="60" as="geometry" />
        </mxCell>
        <mxCell id="Z1aSbTaXqpjSIRkdbFAJ-3" value="Go" style="shape=image;html=1;verticalAlign=top;verticalLabelPosition=bottom;labelBackgroundColor=#ffffff;imageAspect=0;aspect=fixed;image=https://cdn4.iconfinder.com/data/icons/logos-brands-5/24/go-128.png;imageBackground=#ffffff;" vertex="1" parent="ezNUpzqv9ex8p5q5_Ao5-1">
          <mxGeometry x="1252" y="1140" width="28" height="28" as="geometry" />
        </mxCell>
        <mxCell id="Z1aSbTaXqpjSIRkdbFAJ-4" value="React" style="shape=image;html=1;verticalAlign=top;verticalLabelPosition=bottom;labelBackgroundColor=#ffffff;imageAspect=0;aspect=fixed;image=https://cdn4.iconfinder.com/data/icons/logos-brands-5/24/react-128.png;imageBackground=#ffffff;" vertex="1" parent="ezNUpzqv9ex8p5q5_Ao5-1">
          <mxGeometry x="1432" y="1132" width="36" height="36" as="geometry" />
        </mxCell>
        <mxCell id="Z1aSbTaXqpjSIRkdbFAJ-5" style="edgeStyle=orthogonalEdgeStyle;rounded=0;orthogonalLoop=1;jettySize=auto;html=1;" edge="1" parent="ezNUpzqv9ex8p5q5_Ao5-1" source="Z1aSbTaXqpjSIRkdbFAJ-7" target="Z1aSbTaXqpjSIRkdbFAJ-1">
          <mxGeometry relative="1" as="geometry" />
        </mxCell>
        <mxCell id="Z1aSbTaXqpjSIRkdbFAJ-6" value="MongoDB" style="dashed=0;outlineConnect=0;html=1;align=center;labelPosition=center;verticalLabelPosition=bottom;verticalAlign=top;shape=mxgraph.webicons.mongodb;gradientColor=#DFDEDE" vertex="1" parent="ezNUpzqv9ex8p5q5_Ao5-1">
          <mxGeometry x="1160" y="1105" width="50" height="50" as="geometry" />
        </mxCell>
        <mxCell id="Z1aSbTaXqpjSIRkdbFAJ-7" value="GitHub" style="dashed=0;outlineConnect=0;html=1;align=center;labelPosition=center;verticalLabelPosition=bottom;verticalAlign=top;shape=mxgraph.weblogos.github" vertex="1" parent="ezNUpzqv9ex8p5q5_Ao5-1">
          <mxGeometry x="1297" y="1200" width="50" height="45" as="geometry" />
        </mxCell>
        <mxCell id="Z1aSbTaXqpjSIRkdbFAJ-8" style="edgeStyle=orthogonalEdgeStyle;rounded=0;orthogonalLoop=1;jettySize=auto;html=1;" edge="1" parent="ezNUpzqv9ex8p5q5_Ao5-1" source="Z1aSbTaXqpjSIRkdbFAJ-6" target="Z1aSbTaXqpjSIRkdbFAJ-1">
          <mxGeometry relative="1" as="geometry">
            <mxPoint x="1050" y="1130" as="sourcePoint" />
            <mxPoint x="1262" y="1130" as="targetPoint" />
          </mxGeometry>
        </mxCell>
      </root>
    </mxGraphModel>
  </diagram>
</mxfile>
